# xmcd CD database file
#
# Track frame offsets:
#	183
#	15253
#	32648
#	48233
#	63315
#	75895
#	88973
#	103313
#	119198
#	133745
#
# Disc length: 1998 seconds
#
# Revision: 3
# Processed by: cddbd v1.5.2PL0 Copyright (c) Steve Scherf et al.
# Submitted via: CDex 1.79
#
DISCID=7f07cc0a
DTITLE=Chris Wall - Honky Tonk Heart
DYEAR=1990
DGENRE=Country
TTITLE0=Honky Tonk Heart
TTITLE1=Rodeo Wind
TTITLE2=The Empty Seat Beside Me
TTITLE3=Faithfully
TTITLE4=Trashy Women
TTITLE5=Sure Is Smokey In Here
TTITLE6=He Lives My Dream
TTITLE7=I Wish John Stetson Made A Heart
TTITLE8=Entourage
TTITLE9=Something To Shoot
EXTD=YEAR: 1990
EXTT0=
EXTT1=
EXTT2=
EXTT3=
EXTT4=
EXTT5=
EXTT6=
EXTT7=
EXTT8=
EXTT9=
PLAYORDER=
